# Blender 3.1.0
# www.blender.org
mtllib street.mtl
o Plane
v -29.618011 -1.397320 -24.000000
v 29.618011 -1.397320 -24.000000
v -29.618011 -1.397320 444.626495
v -29.618011 -1.397320 361.751373
v 29.618011 -1.397320 361.751373
v 29.618011 -1.397320 444.626495
v 29.618011 -1.397320 742.412842
v -29.618011 -1.397320 742.412842
v -132.863083 -1.397320 361.751373
v 132.863083 -1.397320 361.751373
v 132.863083 -1.397320 444.626495
v -132.863083 -1.397320 444.626495
v -29.618011 0.314367 361.751373
v -29.618011 0.314367 -24.000000
v 29.618011 0.314367 444.626495
v 29.618011 0.314367 742.412842
v -26.985771 -1.397320 -24.000000
v 26.985771 -1.397320 -24.000000
v 26.985771 -1.397320 361.751373
v -26.985771 -1.397320 361.751373
v 26.985771 -1.397320 742.412842
v -26.985771 -1.397320 742.412842
v -26.985771 -1.397320 444.626495
v 26.985771 -1.397320 444.626495
v 29.618011 0.314367 361.751373
v 29.618011 0.314367 -24.000000
v -29.618011 0.314367 444.626495
v -29.618011 0.314367 742.412842
v 26.985771 0.314367 361.751373
v 26.985771 0.314367 -24.000000
v -26.985771 0.314367 -24.000000
v -26.985771 0.314367 361.751373
v 26.985771 0.314367 742.412842
v 26.985771 0.314367 444.626495
v -26.985771 0.314367 444.626495
v -26.985771 0.314367 742.412842
v 132.863083 -0.243258 440.190277
v 132.863083 -0.243258 444.626495
v -132.863083 -1.397320 440.190277
v -132.863083 -1.397320 366.187592
v 132.863083 -1.397320 366.187592
v 132.863083 -1.397320 440.190277
v -132.863083 -0.243258 444.626495
v -132.863083 -0.243258 440.190277
v 29.989817 -1.397320 444.626495
v -29.989815 -1.397320 444.626495
v -29.989817 -1.397320 361.751373
v 29.989815 -1.397320 361.751373
v 29.989815 -1.397320 440.190277
v -29.989815 -1.397320 440.190277
v 29.989815 -1.397320 366.187592
v -29.989815 -1.397320 366.187592
v -132.863083 -0.243258 361.751373
v -132.863083 -0.243258 366.187592
v 132.863083 -0.243258 366.187592
v 132.863083 -0.243258 361.751373
v 29.989817 -0.243258 444.626495
v 29.989815 -0.243258 440.190277
v -29.989815 -0.243258 440.190277
v -29.989815 -0.243258 444.626495
v 29.989815 -0.243258 366.187592
v 29.989815 -0.243258 361.751373
v -29.989817 -0.243258 361.751373
v -29.989815 -0.243258 366.187592
vn -1.0000 -0.0000 -0.0000
vn -0.0000 1.0000 -0.0000
vn -0.0000 -0.0000 -1.0000
vn 1.0000 -0.0000 -0.0000
vn -0.0000 -0.0000 1.0000
vt 0.000000 0.000000
vt 0.000000 0.000000
vt 0.000000 0.000000
vt 0.000000 0.000000
vt 0.000000 0.000000
vt 0.000000 0.000000
vt 0.000000 0.000000
vt 0.000000 0.000000
vt 0.000000 0.000000
vt 0.000000 0.000000
vt 0.000000 0.000000
vt 0.000000 0.000000
vt 0.559952 0.739181
vt 0.000000 0.000000
vt 2.099610 0.739181
vt 0.000000 0.000000
vt 0.229170 0.266321
vt 0.000000 0.000000
vt -0.959391 0.266321
vt 0.000000 0.000000
vt 0.000000 0.000000
vt 2.099610 0.718169
vt 2.099610 0.287333
vt 0.000000 0.000000
vt 0.559952 0.287333
vt 0.000000 0.000000
vt 0.000000 0.000000
vt 0.559952 0.718169
vt 0.000000 0.000000
vt -0.959391 0.287333
vt -0.959391 0.718169
vt 0.000000 0.000000
vt 0.229170 0.718169
vt 0.000000 0.000000
vt 0.000000 0.000000
vt 0.229170 0.287333
vt 0.559952 0.266321
vt 0.000000 0.000000
vt 2.099610 0.266321
vt 0.000000 0.000000
vt 0.229170 0.739181
vt 0.000000 0.000000
vt -0.959391 0.739181
vt 0.000000 0.000000
vt 0.559952 0.287333
vt 0.000000 0.000000
vt 2.099610 0.287333
vt 0.000000 0.000000
vt 0.000000 0.000000
vt 2.099610 0.718169
vt 0.000000 0.000000
vt 0.559952 0.718169
vt 0.000000 0.000000
vt -0.959391 0.287333
vt 0.000000 0.000000
vt 0.229170 0.287333
vt 0.229170 0.718169
vt 0.000000 0.000000
vt -0.959391 0.718169
vt 0.000000 0.000000
vt 0.000000 0.000000
vt 1.328680 0.048425
vt 1.328680 -0.006747
vt 0.000000 0.000000
vt 0.000000 0.000000
vt -0.323713 0.048425
vt -0.323713 0.968783
vt 0.000000 0.000000
vt 1.328680 0.968783
vt 0.000000 0.000000
vt 0.000000 0.000000
vt 1.328680 0.048425
vt -0.323713 -0.006747
vt 0.000000 0.000000
vt 0.000000 0.000000
vt -0.323713 0.048425
vt 0.688972 -0.006747
vt 0.000000 0.000000
vt 0.000000 0.000000
vt 0.315994 -0.006747
vt 0.000000 0.000000
vt 0.315994 1.023956
vt 0.688972 1.023956
vt 0.000000 0.000000
vt 0.688972 0.048425
vt 0.315994 0.048425
vt 0.688972 0.968783
vt 0.315994 0.968783
vt -0.323713 1.023956
vt 0.000000 0.000000
vt -0.323713 0.968783
vt 0.000000 0.000000
vt 1.328680 0.968783
vt 0.000000 0.000000
vt 1.328680 1.023956
vt 0.000000 0.000000
vt 0.688972 -0.006747
vt 0.000000 0.000000
vt 0.688972 0.048425
vt 0.315994 0.048425
vt 0.000000 0.000000
vt 0.315994 -0.006747
vt 0.688972 0.968783
vt 0.688972 1.023956
vt 0.000000 0.000000
vt 0.000000 0.000000
vt 0.315994 1.023956
vt 0.315994 0.968783
s 0
usemtl Material
f 3/3/1 8/8/1 28/44/1 27/42/1
f 28/43/2 36/59/2 35/57/2 27/41/2
f 39/66/2 50/86/2 52/88/2 40/67/2
f 6/6/3 24/35/3 34/55/3 15/18/3
f 22/31/4 23/33/4 35/57/4 36/59/4
f 19/25/2 18/23/2 17/22/2 20/28/2
f 21/30/2 24/36/2 23/33/2 22/31/2
f 21/29/5 7/7/5 16/20/5 33/53/5
f 29/45/2 25/37/2 26/39/2 30/47/2
f 33/54/2 16/19/2 15/17/2 34/56/2
f 13/13/2 32/52/2 31/50/2 14/15/2
f 4/4/5 20/27/5 32/51/5 13/14/5
f 7/7/4 6/6/4 15/18/4 16/20/4
f 18/23/1 19/25/1 29/45/1 30/47/1
f 17/21/3 1/1/3 14/16/3 31/49/3
f 1/1/1 4/4/1 13/14/1 14/16/1
f 19/26/5 5/5/5 25/38/5 29/46/5
f 5/5/4 2/2/4 26/40/4 25/38/4
f 20/28/4 17/22/4 31/50/4 32/52/4
f 2/2/3 18/24/3 30/48/3 26/40/3
f 8/8/5 22/32/5 36/60/5 28/44/5
f 24/36/1 21/30/1 33/54/1 34/56/1
f 23/34/3 3/3/3 27/42/3 35/58/3
f 40/67/5 52/88/5 64/108/5 54/91/5
f 53/89/2 54/91/2 64/108/2 63/107/2
f 48/83/1 51/87/1 61/103/1 62/104/1
f 49/85/2 42/72/2 41/69/2 51/87/2
f 47/81/3 9/9/3 53/90/3 63/106/3
f 45/77/2 49/85/2 50/86/2 46/80/2
f 49/85/2 51/87/2 52/88/2 50/86/2
f 51/87/2 48/83/2 47/82/2 52/88/2
f 12/12/5 46/79/5 60/101/5 43/74/5
f 44/76/2 43/73/2 60/102/2 59/100/2
f 62/104/2 61/103/2 55/93/2 56/95/2
f 58/99/2 57/97/2 38/63/2 37/62/2
f 49/85/1 45/77/1 57/97/1 58/99/1
f 10/10/3 48/84/3 62/105/3 56/96/3
f 39/65/1 12/12/1 43/74/1 44/75/1
f 52/88/4 47/82/4 63/107/4 64/108/4
f 51/87/5 41/69/5 55/93/5 61/103/5
f 11/11/4 42/71/4 37/61/4 38/64/4
f 42/72/3 49/85/3 58/99/3 37/62/3
f 46/80/4 50/86/4 59/100/4 60/102/4
f 9/9/1 40/68/1 54/92/1 53/90/1
f 45/78/5 11/11/5 38/64/5 57/98/5
f 41/70/4 10/10/4 56/96/4 55/94/4
f 50/86/3 39/66/3 44/76/3 59/100/3
